<svg xmlns="http://www.w3.org/2000/svg" width="100.13" height="89.298" viewBox="0 0 100.13 89.298"><defs><style>.a{fill:#fff;}</style></defs><g transform="translate(-32.434)"><g transform="translate(32.434)"><path class="a" d="M279.189,364.137c.054-.481.111-.954.171-1.426l.077-.616,8.544-2.134-.24,1.047a31.812,31.812,0,0,0-.592,3.266l-.079.615-.628-.035c-.906-.058-1.92-.085-3.019-.083-1.426,0-2.706.053-3.534.094l-.785.041Z" transform="translate(-252.289 -276.613)"/><path class="a" d="M477.591,313.967a5.25,5.25,0,0,1-1.079-.1l-.7-.147.189-.674c.107-.384.537-1.888.537-1.888l.421-.071c.92-.15,3.342-.577,5.874-1.233l1.794-.462-1.08,1.483c-.322.445-.592.818-.79,1.11l-.071.1-.1.071a8.888,8.888,0,0,1-5,1.814Z" transform="translate(-391.45 -240.835)"/><path class="a" d="M415.992,364.108c-.188-.441-.375-.913-.587-1.477l-.228-.614L420.6,360l.1.839a25.407,25.407,0,0,0,.491,2.824l.2.837-.877-.031c-.425-.014-.882-.022-1.362-.021-.787,0-1.633.026-2.511.07l-.47.022Z" transform="translate(-348.553 -276.638)"/><path class="a" d="M345.26,367.339c-.2-.229-.394-.474-.595-.742l-.5-.681,5.357-2.133.152.791a17.874,17.874,0,0,0,.474,1.9l.249.8-4.915.317Z" transform="translate(-298.313 -279.317)"/><g transform="translate(61.291 9.12)"><path class="a" d="M397.5,111.585a.555.555,0,0,1-.41-.177.54.54,0,0,1,.032-.767,5.79,5.79,0,0,0,1.506-3.877.555.555,0,0,1,1.107.057,6.85,6.85,0,0,1-1.862,4.619A.548.548,0,0,1,397.5,111.585Z" transform="translate(-396.948 -106.247)"/></g><g transform="translate(59.215 7.128)"><path class="a" d="M390.385,104.374a.545.545,0,0,1-.409-.183.518.518,0,0,1,.064-.735,5.067,5.067,0,0,0,1.5-3.525.53.53,0,0,1,1.058.062,6.143,6.143,0,0,1-1.871,4.261A.538.538,0,0,1,390.385,104.374Z" transform="translate(-389.852 -99.441)"/></g><g transform="translate(57.325 4.738)"><path class="a" d="M383.909,96.05a.514.514,0,0,1-.395-.181.5.5,0,0,1,.061-.71,4.938,4.938,0,0,0,1.448-3.412.516.516,0,0,1,.544-.478.5.5,0,0,1,.484.535,5.935,5.935,0,0,1-1.812,4.126A.518.518,0,0,1,383.909,96.05Z" transform="translate(-383.392 -91.269)"/></g><g transform="translate(55.249 2.512)"><path class="a" d="M376.846,88.109a.494.494,0,0,1-.422-.156.476.476,0,0,1,.029-.677,4.067,4.067,0,0,0,1.125-3.111.49.49,0,0,1,.98-.047,5,5,0,0,1-1.444,3.866A.471.471,0,0,1,376.846,88.109Z" transform="translate(-376.296 -83.661)"/></g><path class="a" d="M285.47,128.588a7.9,7.9,0,0,0,.726-.673.642.642,0,0,0,.125-.674.657.657,0,0,0-.556-.417c-2.53-.251-4.08-.937-4.614-2.039-.931-1.92,1.2-5.119,2.619-7.236a16.057,16.057,0,0,0,1.3-2.145c2.483-5.874-1.717-7.939-1.764-7.959a.58.58,0,0,0-.13-.046,6.8,6.8,0,0,0-4.389-5.735c-.434-1.042-2.2-4.746-5.916-5.946a.688.688,0,0,0-.247-.028c-2.313-2.637-4.455-2.878-5.159-2.877a1.358,1.358,0,0,0-.2.011.639.639,0,0,0-.33.138,8.9,8.9,0,0,0-.9-.79c-.119-2.355-.506-7.012-3.68-8.629a2.1,2.1,0,0,0-2.044-.02c-1.037.573-1.655,2.1-2.019,3.568a5.235,5.235,0,0,0-2.949-.933h-.054a5.245,5.245,0,0,0-1.341.2.8.8,0,0,0-.145-.2L242.913,75.5a.817.817,0,0,0-.3-.189c-.395-.143-1.743-.559-2.492.24s-.152,2.039.047,2.44c1.257,2.572,8.312,11.435,8.613,11.813.006.013.022.02.031.031-1.123.706-2.587,1.876-2.525,3.157a1.9,1.9,0,0,0,.861,1.437c-3.329,2.359-9.651,6.711-9.724,6.761a.841.841,0,0,0-.311.4,5.639,5.639,0,0,0,.43,4.55c.884,1.389,2.482,2.244,4.76,2.539a4.427,4.427,0,0,0,2.388.831,3.733,3.733,0,0,0,2.45-1.006.834.834,0,0,0,.1-.1l.154-.182c.459-.55.936-1.119,1.353-1.133a1.56,1.56,0,0,1,.891.442,14.448,14.448,0,0,0,1.643,1.388,13.52,13.52,0,0,0,1.931,1.173,8.743,8.743,0,0,0,4.458.989l-.5-.008a.192.192,0,0,1-.014-.048,2.476,2.476,0,0,1-.478,1.647.688.688,0,0,0-.1.252c-2.846,1.085-4.621,2.4-5.321,3.921a.8.8,0,0,0-.238.055c-.187.072-.362.145-.531.22a9.44,9.44,0,0,1-1.634.569,29.114,29.114,0,0,1-6.087.8,24.316,24.316,0,0,0-6.948,1.121c-2.419.7-6.31,2.5-10.235,7.166-.687.246-3.652,1.082-7.949-.907l-.265-.2c-3.292-2.5-12.017-9.143-22.557-2.432-2.315,1.476-5.376,6.121-3.746,12.324a5.712,5.712,0,0,1-3.087,6.371.7.7,0,0,0-.2.138.915.915,0,0,0-.243,1.082c.2.433.648.631,1.451.63a6.6,6.6,0,0,0,.681-.041c1.516-.155,3.971-.813,5.164-2.318.167.323.348.638.544.942a20.224,20.224,0,0,0,1.717,2.262,1.831,1.831,0,0,1,.377.981,2.814,2.814,0,0,1-.287,1.136,17.037,17.037,0,0,1-1.468,2.473l-.007.011a.666.666,0,0,0-.051.1,1.7,1.7,0,0,0-.143.435c-.008.048-.013.1-.019.149s0,.12,0,.179a1.042,1.042,0,0,0,.136.43,1.141,1.141,0,0,0,.645.511,1.791,1.791,0,0,0,.484.075,4.441,4.441,0,0,0,1.27-.2,13.148,13.148,0,0,0,2.061-.826,15.267,15.267,0,0,0,1.89-1.1c.185-.13.362-.259.542-.394,0,.133,0,.264,0,.393a3.586,3.586,0,0,1-.338,1.538,1.773,1.773,0,0,1-1.032.837,5.051,5.051,0,0,1-1.652.213h-.01a.8.8,0,0,0-.493.167.81.81,0,0,0-.167,1.15,7.857,7.857,0,0,0,1.871,1.754,8.227,8.227,0,0,0,2.335,1.072,10.343,10.343,0,0,0,5.018.1.481.481,0,0,1,.058-.015,15.2,15.2,0,0,0,4.06-1.836,9.226,9.226,0,0,0,3.053-3.211,120.082,120.082,0,0,0-1.98,12.717.8.8,0,0,0,.233.658.832.832,0,0,0,.659.248,61.491,61.491,0,0,1,8.178-.014c.027,0,.049,0,.075,0a.839.839,0,0,0,.543-.2.827.827,0,0,0,.293-.574c.007-.151,1.046-11.992,8.776-18.01-1.47,4.216-3.458,12.785,1.934,18.5a.85.85,0,0,0,.614.263.393.393,0,0,0,.054,0l5.242-.339a.829.829,0,0,0,.662-.394.81.81,0,0,0,.05-.76c-.051-.118-5.089-11.735,6.934-19.974a31.4,31.4,0,0,0,3.862-.083,36.731,36.731,0,0,0,1.726,17.86v.008s0,0,0,0c.326.929.693,1.866,1.116,2.823a.837.837,0,0,0,.769.495.186.186,0,0,0,.049,0,36.712,36.712,0,0,1,5.431-.013.836.836,0,0,0,.747-.3.823.823,0,0,0,.14-.781,25.1,25.1,0,0,1,3.471-21,15.548,15.548,0,0,0,5.543-2.492c1.019-.45,2.36-.735,2.716-.449.118.1.19.45.02,1.14-.449,1.4-1.031,3.365-1.489,4.96a.006.006,0,0,1,0,.006c-.437,1.518-.764,2.7-.772,2.722a.821.821,0,0,0,.4.938,5.311,5.311,0,0,0,2.372.481,9.9,9.9,0,0,0,5.7-2.083.773.773,0,0,0,.209-.217c.237-.354.626-.886,1.116-1.561,2.894-3.974,8.285-11.368,6.653-15.048A3.2,3.2,0,0,0,285.47,128.588Zm-2.228-19.613c.8.666,2.093,2.382.591,5.925a14.713,14.713,0,0,1-1.184,1.931c-1.666,2.5-3.96,5.933-2.707,8.522.631,1.3,2.023,2.146,4.235,2.57a7.529,7.529,0,0,1-4.335,1.569h-.031c-1.966-.005-3.866-1.008-5.641-2.975a.681.681,0,0,0-.278-.181,7.156,7.156,0,0,1,1.674-4.414,24.87,24.87,0,0,1,2.089-2.317c2.3-2.37,5.173-5.321,5.526-9.515Q283.226,109.536,283.243,108.975Zm-3.823-5.451c2.291,1.531,2.659,3.719,2.429,6.458-.316,3.731-2.894,6.382-5.163,8.716a26.066,26.066,0,0,0-2.2,2.451c-2.055,2.765-2.438,5.189-1.288,8.639-1.841-.41-5.516-1.749-6.4-5.98.541-2.157,2.2-4.043,4.942-5.609.011-.008.027-.015.042-.026l.217-.149C276.567,114.96,281.7,111.509,279.419,103.523Zm-1.786-1.143c3.1,8.182-1.507,11.28-6.388,14.557l-.2.136c-3.11,1.781-4.982,3.986-5.576,6.55a.293.293,0,0,0-.013.064c-.008.037-.02.074-.029.114a9.62,9.62,0,0,0,1.29,6.63c-4.339-.725-6.914-2.144-7.659-4.229-1.17-3.271,2.47-7.373,3.114-8.061a14.212,14.212,0,0,1,1.509-.475.637.637,0,0,0,.134-.044c6.438-2.975,10.365-6.618,11.665-10.83a10.865,10.865,0,0,0-1.281-8.946A10.689,10.689,0,0,1,277.633,102.381Zm-35.954-25.1a2.672,2.672,0,0,1-.214-.555,2.909,2.909,0,0,1,.41.078l10.482,10.255a10.233,10.233,0,0,0-2.191,1.834.613.613,0,0,0-.067-.1C250.029,88.7,242.856,79.693,241.679,77.281Zm8.886,13.087a.783.783,0,0,0,.218-.166c1.514-1.783,3.031-2.7,4.508-2.726l.058,0A4.079,4.079,0,0,1,258,88.539c-.065.416-.112.789-.146,1.091-3.281-.766-6.134,1.395-8.446,3.152-.331.252-.657.5-.971.726-.038.029-.085.059-.126.092-.43-.22-.675-.454-.684-.672C247.588,92.215,249.31,90.981,250.565,90.369Zm7.067,19.519a7.425,7.425,0,0,1-3.739-1.045,12.2,12.2,0,0,1-1.654-1.132c-.3-.24-.592-.5-.874-.773a.915.915,0,0,0-.125-.177c-.156-.159-.312-.3-.463-.432l-.022-.024a.892.892,0,0,0-.141-.114,2.927,2.927,0,0,0-1.927-.742,3.735,3.735,0,0,0-2.586,1.737l-.1.118c-1.148.94-1.911.57-2.938-.1a.811.811,0,0,0-.363-.133c-1.847-.213-3.1-.815-3.729-1.793a3.879,3.879,0,0,1-.343-2.908c1.41-.971,8.508-5.869,10.806-7.543.324-.237.655-.487,1-.743,2.218-1.683,4.731-3.592,7.366-2.769a.85.85,0,0,0,.849-.212.826.826,0,0,0,.824-.758c.14-1.881.765-4.893,1.666-5.389.066-.035.177-.1.454.045,2.506,1.277,2.719,5.9,2.8,7.636a.82.82,0,0,0,.37.647,5.481,5.481,0,0,1,1.81,1.985.836.836,0,0,0,.777.515.948.948,0,0,0,.111-.011c2.422,2.786,3.317,5.439,2.662,7.9-1.226,4.592-7.38,7.427-10.823,8.377-.209.057-.4.115-.6.176a2.813,2.813,0,0,0,.1-1.319,6.751,6.751,0,0,0,1.17-.4,7.864,7.864,0,0,0,1.917-1.23,12.934,12.934,0,0,0,2.715-3.433.372.372,0,0,0-.13-.5.391.391,0,0,0-.533.119h0a12.059,12.059,0,0,1-2.687,3.066A6.07,6.07,0,0,1,257.633,109.888Zm-5.364,8.2c.233-1.85,2.786-3.5,7.384-4.767,3.719-1.028,10.383-4.142,11.757-9.312.818-3.069-.332-6.3-3.415-9.62.022-.032.042-.063.058-.087a.817.817,0,0,0,.043-.094c1.017.224,2.978,1.084,4.951,4.315a9.511,9.511,0,0,1,1.15,7.888c-1.181,3.826-4.847,7.19-10.893,9.99-.631.154-4.863,1.275-6.65,4.123a5.026,5.026,0,0,0-.788,2.638C254.221,122,252.032,119.981,252.269,118.089Zm-50.546,25.255.052.49.007.063.016.092.02.12.043.247.188.967c.083.411.164.817.238,1.222a6.38,6.38,0,0,1-1.248,1.111,13.574,13.574,0,0,1-1.678,1,11.522,11.522,0,0,1-1.782.742c-.044.011-.087.022-.131.035a14.516,14.516,0,0,0,1.155-2.1,4.123,4.123,0,0,0,.388-1.771,2.825,2.825,0,0,0-.218-.984,4.527,4.527,0,0,0-.449-.8l-.006,0a.493.493,0,0,0-.047-.059,18.65,18.65,0,0,1-1.658-2.125,8.788,8.788,0,0,1-1.125-2.316,6.7,6.7,0,0,1-.227-2.506,23.088,23.088,0,0,1,.434-2.61,11.771,11.771,0,0,1,2.715-4.279,7.91,7.91,0,0,1,4.536-2.147,12.8,12.8,0,0,1,5.208.529,20.421,20.421,0,0,1,3.14,1.221.115.115,0,0,0-.031,0,6,6,0,0,0-2.029.686,15.516,15.516,0,0,0-1.72,1.077c-.538.379-1.08.767-1.6,1.2a12.856,12.856,0,0,0-2.75,3.007,9.7,9.7,0,0,0-1.408,3.862A16.8,16.8,0,0,0,201.723,143.344Zm11.658-4.243c.019.374.059.739.111,1.1.106.727.258,1.429.422,2.113a18.8,18.8,0,0,1,.683,3.929,7.364,7.364,0,0,1-.786,3.627,7.564,7.564,0,0,1-2.568,2.722,13.634,13.634,0,0,1-3.58,1.614,8.653,8.653,0,0,1-4.155-.078A6.471,6.471,0,0,1,201.266,153a4.372,4.372,0,0,0,.458-.143,3.645,3.645,0,0,0,1.089-.626,3.325,3.325,0,0,0,.795-1,3.947,3.947,0,0,0,.232-.567,4.9,4.9,0,0,0,.14-.565,6.593,6.593,0,0,0,.1-1.087,10.99,10.99,0,0,0-.186-2.063.069.069,0,0,1-.007-.031.828.828,0,0,0-.06-.309c-.106-.542-.222-1.071-.341-1.59l-.2-.931-.044-.227-.02-.12-.007-.026-.007-.056-.062-.468a15.609,15.609,0,0,1-.053-3.7,8.4,8.4,0,0,1,1.153-3.394,11.572,11.572,0,0,1,2.436-2.771c.475-.408.986-.8,1.5-1.179a14.408,14.408,0,0,1,1.573-1.039,4.97,4.97,0,0,1,1.656-.609,6.457,6.457,0,0,1,1.822.015.542.542,0,0,0,.251-.038l.016-.006a.266.266,0,0,0,.05-.026.282.282,0,0,0,.04-.024c.009,0,.015-.013.024-.018a.651.651,0,0,0,.051-.048.054.054,0,0,1,.011-.013.438.438,0,0,0,.038-.049.132.132,0,0,1,.007-.013.035.035,0,0,0,.006-.008.568.568,0,0,0,.062-.17v-.016c0-.025,0-.051,0-.077s0-.033,0-.048l-.007-.037c-.007-.028-.016-.05-.023-.074,0,0,0,0,0-.009a.474.474,0,0,0-.255-.255,21.335,21.335,0,0,0-5.028-2.335,13.941,13.941,0,0,0-5.671-.659,9.356,9.356,0,0,0-2.827.763,9.174,9.174,0,0,0-2.438,1.623,13.134,13.134,0,0,0-3.13,4.744.413.413,0,0,0-.031.1l0,0a25.221,25.221,0,0,0-.5,2.817,8.188,8.188,0,0,0,.176,2.761.808.808,0,0,0-.224.4,2.242,2.242,0,0,1-1.15,1.314,7.132,7.132,0,0,1-1.817.738,7.592,7.592,0,0,0,1.858-6.585.509.509,0,0,0-.018-.083c-1.484-5.587,1.4-9.534,3.029-10.574,9.544-6.072,17.306-.168,20.62,2.354l.343.257a.685.685,0,0,0,.149.092,13.951,13.951,0,0,0,7.213,1.439c-.5.7-1,1.449-1.5,2.255-.494-.038-1.015-.106-1.564-.155a9.616,9.616,0,0,0-1.168-.031,5.083,5.083,0,0,0-.636.071,4.015,4.015,0,0,0-.652.18,13.31,13.31,0,0,0-2.051.935,6.355,6.355,0,0,0-1.834,1.556,5.8,5.8,0,0,0-1.028,2.18,9.986,9.986,0,0,0-.266,2.248C213.351,138.377,213.36,138.727,213.381,139.1Zm1.768.874c-.045-.323-.081-.645-.1-.966s-.028-.661-.019-.982a5.643,5.643,0,0,1,.948-3.452,6.831,6.831,0,0,1,3.142-1.947,3.975,3.975,0,0,1,1.728-.121c.256.019.52.047.792.077a60.488,60.488,0,0,0-5.372,13.825c0-.066,0-.135,0-.2a19.958,19.958,0,0,0-.726-4.261C215.385,141.275,215.242,140.62,215.149,139.975Zm6.5,22.68a63.435,63.435,0,0,0-6.628.016c.061-.535.125-1.058.191-1.583l7.039-1.762C221.918,160.759,221.737,161.929,221.645,162.655Zm13.261.011c-.2-.225-.383-.46-.559-.7l3.805-1.518a18.98,18.98,0,0,0,.491,1.974Zm3-3.889-4.439,1.766c-3.247-6.331.255-14.944.946-16.513a16.288,16.288,0,0,1,4.942-1.635c.952.057,1.871.119,2.759.177.969.063,1.893.125,2.771.176C238.25,148.115,237.467,154.515,237.906,158.778Zm17.6,3.516c-.2-.488-.393-.971-.576-1.454l4.007-1.492a25.713,25.713,0,0,0,.5,2.9C258.582,162.217,257.271,162.206,255.508,162.294ZM266.7,139.517c.249-.276.5-.552.77-.827a.814.814,0,0,0-.024-1.164.849.849,0,0,0-1.181.026,27.652,27.652,0,0,0-2.569,3.044.762.762,0,0,0-.1.14,26.147,26.147,0,0,0-4.8,16.907l-4.4,1.642a33.8,33.8,0,0,1-.245-20.844.817.817,0,0,0-.478-1.062.836.836,0,0,0-1.082.47,21.672,21.672,0,0,0-.915,3.245,55.521,55.521,0,0,1-9.446-.165q-1.375-.089-2.858-.181a1.051,1.051,0,0,0-.185.011,17.84,17.84,0,0,0-5.673,1.884.8.8,0,0,0-.293.165,21,21,0,0,0-8.6,9.652,33.579,33.579,0,0,0-1.9,5.05l-7.28,1.822c1.508-10.978,4.206-19.911,8.04-26.579,3.55-6.175,7.98-10.174,12.836-11.566a22.892,22.892,0,0,1,6.547-1.048,30.729,30.729,0,0,0,6.4-.849,10.9,10.9,0,0,0,1.669-.561c.32,3.413,5.2,6.195,5.427,6.321a.7.7,0,0,0,.333.085.71.71,0,0,0,.4-.13.652.652,0,0,0,.246-.683,3.855,3.855,0,0,1,.448-3.106,5.991,5.991,0,0,1,1.534-1.588c-1.225,1.885-2.407,4.549-1.529,7.007,1.008,2.819,4.436,4.606,10.2,5.309.029,0,.058.006.084.006a.665.665,0,0,0,.578-.329.645.645,0,0,0-.043-.724,10.551,10.551,0,0,1-1.763-3.611c2.547,3.625,7.258,3.98,7.32,3.982a.274.274,0,0,0,.042,0,.677.677,0,0,0,.54-.272.658.658,0,0,0,.081-.628,16.4,16.4,0,0,1-.658-1.975,10.422,10.422,0,0,0,2.237,1.564C273.174,135.83,269.211,138.411,266.7,139.517Zm11.505,6.339c-2.663,1.844-4.619,1.8-5.551,1.6.109-.387.257-.9.423-1.485,1.036-.168,3.417-.592,5.934-1.244C278.682,145.179,278.4,145.56,278.2,145.856Zm2.356-3.278a62.933,62.933,0,0,1-6.978,1.637c.376-1.283.78-2.632,1.112-3.665a.144.144,0,0,0,.016-.05c.331-1.306.134-2.259-.582-2.831a2.177,2.177,0,0,0-1.116-.446,26.889,26.889,0,0,0,4.975-6.659,7.027,7.027,0,0,0,1.819.239h.041a8.215,8.215,0,0,0,3.809-1,.763.763,0,0,0,.221.061c1.489.188,1.779.848,1.877,1.066C286.8,133.311,283.128,138.955,280.559,142.578Z" transform="translate(-187.453 -75.076)"/><path class="a" d="M409.976,144.594a1.873,1.873,0,1,0,1.909,1.868A1.888,1.888,0,0,0,409.976,144.594Z" transform="translate(-343.527 -124.255)"/><path class="a" d="M370.461,168.978a4.6,4.6,0,0,1-.342.385,2.236,2.236,0,0,1-.338.294.381.381,0,0,1-.179.058c-.056.006-.083.018-.094.059s-.025.087-.058.164a1.241,1.241,0,0,1-.208.281l-.025.1a.594.594,0,0,0,.724.348.53.53,0,0,0,.324-.221,2.641,2.641,0,0,0,.159-.311,1.726,1.726,0,0,0,.159-.573,2.441,2.441,0,0,0-.025-.56Z" transform="translate(-316.039 -141.505)"/><path class="a" d="M437.114,116.876c1.287,1.043,1.142,3.195,1.14,3.221a.341.341,0,0,0,.317.36h.027a.339.339,0,0,0,.337-.309c.008-.123.212-2.977-1.838-4.093a.333.333,0,0,0-.28-.021.329.329,0,0,0-.207.2,11.578,11.578,0,0,0-.381,1.333,6.591,6.591,0,0,1-.654,1.893.327.327,0,0,0,.09.466.339.339,0,0,0,.471-.086,6.842,6.842,0,0,0,.757-2.114C436.965,117.425,437.036,117.136,437.114,116.876Z" transform="translate(-362.939 -104.036)"/></g></g></svg>
