<svg xmlns="http://www.w3.org/2000/svg" width="27.518" height="27.512" viewBox="0 0 27.518 27.512">
  <path id="Icon_awesome-instagram" data-name="Icon awesome-instagram" d="M13.757,8.94a7.054,7.054,0,1,0,7.054,7.054A7.042,7.042,0,0,0,13.757,8.94Zm0,11.639a4.586,4.586,0,1,1,4.586-4.586,4.594,4.594,0,0,1-4.586,4.586ZM22.744,8.651A1.645,1.645,0,1,1,21.1,7.006,1.641,1.641,0,0,1,22.744,8.651Zm4.672,1.67a8.142,8.142,0,0,0-2.222-5.764,8.2,8.2,0,0,0-5.764-2.222c-2.271-.129-9.079-.129-11.351,0A8.184,8.184,0,0,0,2.314,4.551,8.169,8.169,0,0,0,.091,10.315c-.129,2.271-.129,9.079,0,11.351A8.142,8.142,0,0,0,2.314,27.43a8.206,8.206,0,0,0,5.764,2.222c2.271.129,9.079.129,11.351,0a8.142,8.142,0,0,0,5.764-2.222,8.2,8.2,0,0,0,2.222-5.764c.129-2.271.129-9.073,0-11.345ZM24.481,24.1a4.643,4.643,0,0,1-2.615,2.615c-1.811.718-6.108.553-8.11.553s-6.3.16-8.11-.553A4.643,4.643,0,0,1,3.032,24.1c-.718-1.811-.553-6.108-.553-8.11s-.16-6.3.553-8.11A4.643,4.643,0,0,1,5.647,5.269c1.811-.718,6.108-.553,8.11-.553s6.3-.16,8.11.553a4.643,4.643,0,0,1,2.615,2.615c.718,1.811.553,6.108.553,8.11S25.2,22.3,24.481,24.1Z" transform="translate(0.005 -2.238)" fill="#fff"/>
</svg>
