<svg id="icone_logout" xmlns="http://www.w3.org/2000/svg" width="28" height="28" viewBox="0 0 28 28">
  <path id="Caminho_5211" data-name="Caminho 5211" d="M0,0H28V28H0Z" fill="none"/>
  <path id="Caminho_5212" data-name="Caminho 5212" d="M10.37,16.087l1.466,1.466,5.2-5.2-5.2-5.2L10.37,8.624l2.682,2.692H3v2.079H13.052ZM19.632,3H5.079A2.078,2.078,0,0,0,3,5.079V9.237H5.079V5.079H19.632V19.632H5.079V15.474H3v4.158A2.078,2.078,0,0,0,5.079,21.71H19.632a2.085,2.085,0,0,0,2.079-2.079V5.079A2.085,2.085,0,0,0,19.632,3Z" transform="translate(1.645 1.645)" fill="#fff"/>
</svg>
