<svg xmlns="http://www.w3.org/2000/svg" width="33.154" height="33.154" viewBox="0 0 33.154 33.154">
  <path id="Icon_awesome-phone-alt" data-name="Icon awesome-phone-alt" d="M32.209,23.428,24.956,20.32a1.554,1.554,0,0,0-1.813.447l-3.212,3.924A24,24,0,0,1,8.457,13.217l3.924-3.212a1.55,1.55,0,0,0,.447-1.813L9.72.94A1.564,1.564,0,0,0,7.939.04L1.2,1.594A1.554,1.554,0,0,0,0,3.108,30.043,30.043,0,0,0,30.046,33.155a1.554,1.554,0,0,0,1.515-1.2l1.554-6.735a1.573,1.573,0,0,0-.907-1.787Z" transform="translate(0 0)" fill="#ffffff"/>
</svg>
